<?xml version="1.0" encoding="utf-8"?>
<svg version="1.1" xmlns:xlink="http://www.w3.org/1999/xlink" width="43px" height="43px" xmlns="http://www.w3.org/2000/svg">
  <g transform="matrix(1 0 0 1 -14 -72 )">
    <path d="M 35.5 72  C 47.54 72  57 81.46  57 93.5  C 57 105.53999999999999  47.54 115  35.5 115  C 23.46 115  14 105.53999999999999  14 93.5  C 14 81.46  23.46 72  35.5 72  Z " fill-rule="nonzero" fill="#ffffff" stroke="none" />
    <path d="M 35.5 72.5  C 47.26 72.5  56.5 81.74  56.5 93.5  C 56.5 105.25999999999999  47.26 114.5  35.5 114.5  C 23.74 114.5  14.5 105.25999999999999  14.5 93.5  C 14.5 81.74  23.74 72.5  35.5 72.5  Z " stroke-width="1" stroke="#797979" fill="none" />
  </g>
</svg>